<?xml version="1.0" encoding="utf-8"?>
<!-- Generator: Adobe Illustrator 21.1.0, SVG Export Plug-In . SVG Version: 6.00 Build 0)  -->
<svg version="1.1" id="Layer_1" xmlns="http://www.w3.org/2000/svg" xmlns:xlink="http://www.w3.org/1999/xlink" x="0px" y="0px"
	 viewBox="0 0 200 200" style="enable-background:new 0 0 200 200;" xml:space="preserve">
<style type="text/css">
	.st0{fill:#EAB95F;}
	.st1{fill:#231F20;}
	.st2{fill:#FCF499;}
	.st3{fill:#7C5421;}
	.st4{fill:#4C3715;}
	.st5{fill:#CB8A2A;}
	.st6{fill:#636267;}
	.st7{fill:#975027;}
	.st8{fill:#F2CF95;}
	.st9{fill:#CE4A49;}
</style>
<g>
	<g>
		<polygon class="st0" points="79.8,92.2 98.7,108.5 119.2,92 114.9,89.9 114.9,69.3 82.9,68.7 83.1,90.5 		"/>
		<path class="st1" d="M98.7,110L77.7,92l4.2-2.1l-0.2-22.3l34.4,0.7v21l5.2,2.6L98.7,110z M81.8,92.4L98.7,107l18.4-14.8l-3.3-1.6
			V70.5L84,69.9l0.2,21.3L81.8,92.4z"/>
	</g>
	<g>
		<ellipse transform="matrix(0.9785 -0.206 0.206 0.9785 -9.9011 16.976)" class="st0" cx="76.6" cy="56" rx="4.2" ry="7.7"/>
		<path class="st1" d="M77.6,64.8c-1.3,0-2.6-0.7-3.8-2c-1.2-1.4-2.1-3.4-2.6-5.6c-1-4.9,0.5-9.2,3.4-9.8c2.9-0.6,6.1,2.7,7.1,7.6
			c0.5,2.2,0.4,4.4-0.1,6.2c-0.6,2-1.8,3.3-3.3,3.6C78.1,64.7,77.9,64.8,77.6,64.8z M75.5,49.6c-0.1,0-0.2,0-0.2,0
			c-1.4,0.3-2.5,3.4-1.7,7.1c0.4,1.8,1.1,3.5,2.1,4.6c0.8,0.9,1.6,1.4,2.3,1.2c0.7-0.1,1.3-0.9,1.6-2c0.4-1.4,0.4-3.2,0.1-5
			C78.9,51.9,76.9,49.6,75.5,49.6z"/>
	</g>
	<g>
		<ellipse transform="matrix(0.1241 -0.9923 0.9923 0.1241 51.2879 170.1551)" class="st0" cx="122" cy="56" rx="7.7" ry="4.2"/>
		<path class="st1" d="M121.4,64.8c-0.1,0-0.3,0-0.4,0c-3-0.4-4.8-4.5-4.2-9.5c0.3-2.2,1-4.3,2.1-5.8c1.2-1.7,2.8-2.5,4.3-2.3
			c3,0.4,4.8,4.5,4.2,9.5C126.8,61.4,124.2,64.8,121.4,64.8z M122.7,49.5c-0.6,0-1.4,0.5-2,1.4c-0.9,1.2-1.5,2.9-1.7,4.7
			c-0.5,3.7,0.8,6.7,2.3,6.9c1.5,0.2,3.4-2.4,3.9-6.1c0.5-3.7-0.8-6.7-2.3-6.9C122.8,49.5,122.7,49.5,122.7,49.5z"/>
	</g>
	<g>
		<path class="st0" d="M122.1,46.6c0,15-10.4,40-23.1,40s-23.1-25-23.1-40S86.2,19.5,99,19.5S122.1,31.6,122.1,46.6z"/>
		<path class="st1" d="M99,87.8c-14.3,0-24.3-26.7-24.3-41.1C74.7,31,85.6,18.3,99,18.3s24.3,12.7,24.3,28.3
			C123.3,61.1,113.3,87.8,99,87.8z M99,20.6c-12.1,0-22,11.7-22,26c0,14.6,10.3,38.8,22,38.8s22-24.2,22-38.8
			C121,32.3,111.1,20.6,99,20.6z"/>
	</g>
	<g>
		<path class="st2" d="M119.7,26.8c0,0-3,12-19.9,11c-7-0.5-9.5,10.5-27.4,8.5c0,0-8.5-36.9,28.4-36.4c36.9,0.5,24.9,39.4,24.9,39.4
			l-3.2-1c0,0-1.7-16.4-4.3-16.8"/>
		<path class="st1" d="M126.4,50.7l-5-1.6l-0.1-0.7c-0.7-7-2.3-15-3.5-15.8c0,0-0.1,0-0.1,0c-2.9,3.4-8.3,7-18,6.4
			c-2.2-0.2-4,1.1-6.3,2.8c-4,2.9-9.5,6.9-21.1,5.6l-0.8-0.1l-0.2-0.8c-0.2-0.7-3.9-17.3,5.1-28.4c5.1-6.4,13.3-9.5,24.4-9.4
			c10.6,0.1,18.4,3.4,23,9.8c8.7,12,3.2,30.3,3,31L126.4,50.7z M123.5,47.4l1.4,0.4c1-4.1,3.9-18.5-2.9-27.9
			c-4.2-5.7-11.3-8.7-21.2-8.8c-10.4-0.2-17.9,2.7-22.6,8.5c-7.2,8.9-5.4,22.3-4.8,25.7c10.1,0.9,14.9-2.5,18.7-5.3
			c2.6-1.9,4.7-3.5,7.8-3.2c15.7,0.9,18.6-9.7,18.7-10.1c0.2-0.6,0.8-1,1.4-0.8c0.6,0.2,1,0.8,0.8,1.4c0,0-0.4,1.6-1.7,3.6
			C120.9,32.1,122.4,37.7,123.5,47.4z"/>
	</g>
</g>
<g>
	<g>
		<path class="st3" d="M130.9,119.5l-0.3,18c0,0,4.7,8.7,19.4,9c14.7,0.3,19.4-7.4,19.4-7.4v-19.7H130.9z"/>
		<path class="st1" d="M150.8,147.7c-0.3,0-0.6,0-0.9,0c-15.1-0.3-20.2-9.2-20.4-9.6l-0.1-0.3l0.4-19.5h40.7v21.2l-0.2,0.3
			C170.1,140.1,165.3,147.7,150.8,147.7z M131.7,137.2c0.9,1.4,5.7,7.9,18.3,8.2c12.5,0.3,17.3-5.3,18.2-6.6v-18.2H132L131.7,137.2z
			"/>
	</g>
	<g>
		<circle class="st4" cx="149.1" cy="86.5" r="27.5"/>
		<path class="st1" d="M149.1,115.2c-15.8,0-28.7-12.9-28.7-28.7c0-12.1,3-28.3,28.7-28.7c9.7-0.2,16.8,2.1,21.6,6.8
			c4.8,4.7,7.1,11.9,7.1,21.9C177.8,102.3,164.9,115.2,149.1,115.2z M150,60.1c-0.3,0-0.6,0-0.9,0c-18.5,0.3-26.4,8.2-26.4,26.4
			c0,14.6,11.8,26.4,26.4,26.4c14.6,0,26.4-11.8,26.4-26.4c0-9.4-2.1-16-6.4-20.3C164.9,62.1,158.7,60.1,150,60.1z"/>
	</g>
	<g>
		
			<ellipse transform="matrix(0.2027 -0.9792 0.9792 0.2027 36.2829 251.2382)" class="st3" cx="172.4" cy="103.3" rx="8.1" ry="5.8"/>
		<path class="st1" d="M171.6,112.5c-0.4,0-0.7,0-1.1-0.1c-1.9-0.4-3.4-1.7-4.3-3.8c-0.9-1.9-1.1-4.3-0.6-6.6c1-5,4.9-8.4,8.6-7.7
			c3.7,0.8,5.9,5.5,4.9,10.4h0C178.3,109.3,175,112.5,171.6,112.5z M173.2,96.5c-2.3,0-4.6,2.5-5.3,5.9c-0.4,1.9-0.2,3.8,0.4,5.3
			c0.6,1.4,1.6,2.3,2.7,2.5c2.5,0.5,5.2-2.2,5.9-5.9h0c0.8-3.7-0.7-7.3-3.1-7.8C173.6,96.5,173.4,96.5,173.2,96.5z M178.1,104.5
			L178.1,104.5L178.1,104.5z"/>
	</g>
	<g>
		
			<ellipse transform="matrix(0.9065 -0.4223 0.4223 0.9065 -31.895 63.0218)" class="st3" cx="126.3" cy="103.5" rx="5.8" ry="8.1"/>
		<path class="st1" d="M127.9,112.4c-3,0-6.2-2.3-7.9-6c-1-2.2-1.4-4.5-1-6.6c0.4-2.2,1.6-3.9,3.3-4.7c1.7-0.8,3.8-0.6,5.7,0.5
			c1.8,1,3.4,2.8,4.4,5l0,0c2.2,4.6,1.1,9.7-2.4,11.3C129.5,112.2,128.7,112.4,127.9,112.4z M124.7,96.9c-0.5,0-0.9,0.1-1.3,0.3
			c-1.1,0.5-1.8,1.6-2.1,3c-0.3,1.6,0,3.5,0.8,5.2c1.6,3.4,4.9,5.4,7.1,4.4c2.3-1.1,2.8-4.8,1.3-8.3c-0.8-1.8-2.1-3.2-3.5-4
			C126.2,97.1,125.4,96.9,124.7,96.9z"/>
	</g>
	<g>
		<path class="st3" d="M174.2,99.6c0,13.7-11.2,33.5-24.7,33.5c-13.5,0-24.2-19.8-24.2-33.5c0-10.2,0-22.4,10-27.9
			c3.4,1.6,8,2.3,14,2.3c5.8,0,10-0.3,13.6-2.6C173.5,76.8,174.2,89.3,174.2,99.6z"/>
		<path class="st1" d="M149.5,134.2c-14.5,0-25.3-21-25.3-34.6c0-10.3,0-23.1,10.6-28.9l0.5-0.3l0.5,0.2c3.2,1.5,7.6,2.2,13.5,2.2
			c5.3,0,9.6-0.2,13-2.4l0.5-0.3l0.6,0.3c11,5.6,11.9,18,11.9,29.2C175.3,113.2,164.2,134.2,149.5,134.2z M135.4,73
			c-9,5.3-9,16.6-9,26.5c0,18.5,14,32.4,23.1,32.4c13,0,23.5-19.6,23.5-32.3c0-10.3-0.8-21.7-10.1-26.8c-3.8,2.2-8.2,2.4-13.6,2.4
			C143.3,75.2,138.9,74.5,135.4,73z"/>
	</g>
	<g>
		<path class="st4" d="M168.8,70.2c-1.9,9.5-9.7,15-19.7,15c-10,0-17-5.8-19-15.1"/>
		<path class="st1" d="M149.1,86.3c-10.5,0-18-6-20.1-16c-0.1-0.6,0.3-1.2,0.9-1.4c0.6-0.1,1.2,0.3,1.4,0.9
			c1.9,8.9,8.6,14.2,17.9,14.2c9.7,0,16.8-5.4,18.6-14.1c0.1-0.6,0.7-1,1.3-0.9c0.6,0.1,1,0.7,0.9,1.3
			C167.9,80.2,160,86.3,149.1,86.3z"/>
	</g>
</g>
<g>
	<g>
		<path class="st5" d="M40.5,144.7c4,4,9.8,14.3,9.8,14.3s7.8-14.5,10.4-16.1c1.7-1,4.2-6.5,5.9-10.3c-1.5-0.6-2.9-1.1-3.4-1.5
			c-1.4-0.9-0.5-19.7-0.5-19.7l-24.9,1.7l-0.2,17.6L34,133C35.6,136.9,38.1,142.3,40.5,144.7z"/>
		<path class="st1" d="M50.4,161.4l-1-1.8c-0.1-0.1-5.8-10.3-9.7-14.1c-2.5-2.5-5.1-7.9-6.8-12.1l-0.4-0.9l3.9-2.3l0.2-18l27.2-1.9
			l-0.1,1.3c-0.4,8.1-0.4,17.1,0.2,18.8c0.3,0.2,1.2,0.5,3,1.3l1.1,0.4l-0.5,1.1c-4,9.5-5.8,10.5-6.3,10.8c-1.6,1-6.8,9.7-9.9,15.6
			L50.4,161.4z M35.4,133.5c2.2,5.1,4.3,8.8,5.9,10.4c3.1,3.1,7.1,9.6,9,12.8c2.3-4.3,7.5-13.3,9.8-14.7c0.3-0.2,1.7-1.3,4.9-8.7
			c-1.7-0.7-2.2-1-2.5-1.1c-0.6-0.4-1.9-1.2-1.1-19.4l-22.5,1.6l-0.2,17.2L35.4,133.5z"/>
	</g>
	<g>
		<path class="st5" d="M73.8,89c0,12.6-10.9,34.6-23.6,34.6S28.1,101.6,28.1,89s10.2-22.9,22.9-22.9S73.8,76.4,73.8,89z"/>
		<path class="st1" d="M50.2,124.7c-13.7,0-23.3-23.2-23.3-35.7c0-13.2,10.8-24,24-24c13.2,0,24,10.8,24,24
			C74.9,102.5,63.4,124.7,50.2,124.7z M50.9,67.3C39,67.3,29.2,77,29.2,89c0,12.9,9.6,33.4,21,33.4c11.6,0,22.4-20.9,22.4-33.4
			C72.7,77,62.9,67.3,50.9,67.3z"/>
	</g>
	<g>
		<path class="st6" d="M27.7,88.8c0-2.9,0.5-5.7,1.5-8.2c2.4-6.1,8.9-6.6,16.6-6.3c5.1,0,10-7.1,20-0.9c6,3.7,7.5,7.8,7.5,15.3
			c0,3.4-0.8,7.5-2.2,11.6c4.4-5,7-11.5,7-18.6c0-12-7.5-22.2-18-26.3c0.3-1,0.5-2.1,0.5-3.2c0-6-4.8-9.4-10.8-9.4
			s-10.9,3.5-10.9,9.4c0,1.1,0.2,2.2,0.5,3.2c-10.5,4.1-18,14.3-18,26.3c0,7.9,3.2,15,8.5,20.2C28.6,97.4,27.7,92.7,27.7,88.8z"/>
		<path class="st1" d="M32.8,106.2l-3.4-3.3c-5.7-5.6-8.8-13-8.8-21c0-11.8,6.9-22.3,17.8-27C38.1,54,38,53.2,38,52.4
			c0-6.2,4.9-10.6,12-10.6c7,0,11.9,4.3,11.9,10.6c0,0.8-0.1,1.6-0.3,2.5c10.8,4.7,17.8,15.1,17.8,27c0,7.1-2.6,14-7.3,19.4
			l-3.8,4.3l1.8-5.4c1.4-4.2,2.2-8.1,2.2-11.3c0-7.6-1.7-11.1-7-14.4c-6.4-3.9-10.3-2.2-14.1-0.5c-1.8,0.8-3.5,1.6-5.4,1.6
			c-8.4-0.4-13.6,0.4-15.6,5.5c-1,2.5-1.4,5.1-1.4,7.8c0,3.7,0.9,8.2,2.4,12.8L32.8,106.2z M50,44.1c-4.8,0-9.7,2.6-9.7,8.3
			c0,0.9,0.2,1.8,0.5,2.9l0.3,1l-1,0.4c-10.5,4.1-17.3,14-17.3,25.2c0,5.6,1.7,10.9,4.8,15.4c-0.7-3-1.1-5.9-1.1-8.4
			c0-3,0.5-5.9,1.6-8.6c2.7-7.1,10.3-7.3,17.8-7c1.3,0,2.7-0.6,4.4-1.4c3.9-1.7,8.8-3.9,16.2,0.7c6.8,4.2,8.1,9,8.1,16.3
			c0,1.7-0.2,3.6-0.6,5.6c2-3.8,3.1-8.1,3.1-12.5c0-11.2-6.8-21.2-17.3-25.3l-1-0.4l0.3-1c0.3-1.1,0.5-2,0.5-2.9
			C59.6,46.6,54.8,44.1,50,44.1z"/>
	</g>
</g>
<g>
	<g>
		<g>
			<g>
				<path class="st7" d="M109.1,153.1c15-7.5,12.2-25.8,12-28.5c-0.7-9.1-9.4-18.8-23.9-18.8c-14.5,0-22.8,8.1-24.1,19.1
					c-0.3,2.7-3,20.7,12,28c5.2,2.5,12.2,5.2,12.2,5.2S104.1,156.6,109.1,153.1z"/>
				<path class="st1" d="M97.3,159.4l-0.4-0.1c-0.1,0-7.1-2.8-12.3-5.3c-9.9-4.8-14.4-15.1-12.7-28.9l0-0.3
					c1.4-12.4,11.1-20.2,25.3-20.2c15.3,0,24.3,10.3,25.1,20l0.1,0.5c1.8,17.8-5.8,25.7-12.6,29.1c-5.1,3.6-11.8,5.1-12.1,5.1
					L97.3,159.4z M97.2,107c-13,0-21.5,6.7-22.8,18l0,0.3c-1.5,12.8,2.5,22.1,11.3,26.4c4.5,2.1,10.3,4.5,11.8,5.1
					c1.4-0.4,6.8-1.9,10.9-4.7l0.2-0.1c6.1-3.1,13-10.2,11.4-26.7l-0.1-0.6C119.1,116.1,111,107,97.2,107z"/>
			</g>
			<g>
				<path class="st8" d="M107.4,152.3l0.3,12.6c0,0.3,0.2,0.6,0.5,0.7l7.8,8c0.6,0.3-7,15.7-18.7,15.5
					c-11.7-0.2-19.4-15.2-18.8-15.5l7.8-8c0.3-0.1,0.5-0.4,0.5-0.7l0.3-12.6c0-0.4,0.4-0.8,0.8-0.8h18.8
					C107,151.6,107.4,151.9,107.4,152.3z"/>
				<path class="st1" d="M97.5,190.3c-0.1,0-0.1,0-0.2,0c-11.8-0.2-19.6-14.1-20.1-16.3l-0.2-1l0.6-0.4l7.9-8.1l0.3-12.3
					c0-1.1,0.9-2,2-2h18.8c1.1,0,2,0.9,2,2l0.4,12.4l7.6,7.8l0.7,0.3l-0.2,1.2C116.7,176.4,109,190.3,97.5,190.3z M79.8,174
					c1.1,2.8,8.1,13.7,17.5,13.9c9.5,0.1,16.2-11,17.3-13.9l-7.2-7.4c-0.6-0.4-0.9-1-0.9-1.7l-0.3-12.1H88.2L88,164.9
					c0,0.7-0.4,1.3-0.9,1.7L79.8,174z M108.9,164.9L108.9,164.9L108.9,164.9z"/>
			</g>
			<g>
				
					<ellipse transform="matrix(0.9954 -9.536231e-02 9.536231e-02 0.9954 -12.6297 8.1682)" class="st8" cx="79.1" cy="136.2" rx="2.4" ry="5.7"/>
				<path class="st1" d="M79.6,143.2c-0.7,0-1.9-0.3-2.9-2.2c-0.6-1.2-1.1-2.8-1.2-4.4l0,0c-0.2-1.7,0-3.3,0.4-4.6
					c0.7-2.2,1.9-2.6,2.6-2.7c0.7-0.1,2,0.1,3.1,2.2c0.6,1.2,1.1,2.8,1.2,4.4c0.3,3.5-0.6,7.1-3,7.3
					C79.7,143.2,79.7,143.2,79.6,143.2z M78.7,131.7c-0.2,0.2-0.9,1.8-0.7,4.6l0,0c0.3,2.8,1.3,4.3,1.7,4.4c0.2-0.2,0.9-1.8,0.7-4.6
					C80,133.3,79,131.9,78.7,131.7z"/>
			</g>
			<g>
				
					<ellipse transform="matrix(9.536231e-02 -0.9954 0.9954 9.536231e-02 -31.4828 236.552)" class="st8" cx="114.4" cy="135.6" rx="5.7" ry="2.4"/>
				<path class="st1" d="M114,142.6c-0.1,0-0.1,0-0.2,0c-0.7-0.1-1.9-0.5-2.6-2.7c-0.4-1.3-0.5-2.9-0.4-4.6c0.2-1.7,0.6-3.3,1.2-4.4
					c1.1-2,2.4-2.2,3.1-2.2c2.4,0.2,3.3,3.8,3,7.3l0,0c-0.2,1.7-0.6,3.3-1.2,4.4C115.8,142.2,114.7,142.6,114,142.6z M114.8,131.1
					c-0.2,0.1-1.3,1.6-1.5,4.4c-0.3,2.8,0.5,4.4,0.8,4.6c0.2-0.1,1.3-1.6,1.5-4.4C115.8,132.9,115.1,131.3,114.8,131.1z
					 M116.8,135.8L116.8,135.8L116.8,135.8z"/>
			</g>
			<g>
				<path class="st8" d="M79.5,133.9c0,14.7,10.2,26.7,17.1,26.6c6.9-0.2,17.1-11.9,17.1-26.6c0-3.4-0.4-6.6-1.1-9.5
					c-0.6-2.5-0.3-2.6-1.4-4.7c-3.1-6.1-9.6-0.7-15-0.7c-5.9,0-11.4-5.4-14.5,1.7c-0.6,1.4-0.4,1.3-0.8,2.9
					C80,126.7,79.5,130.2,79.5,133.9z"/>
				<path class="st1" d="M96.4,161.7c-2.7,0-5.8-1.5-8.7-4.4c-4.6-4.4-9.4-12.9-9.4-23.4c0-3.7,0.5-7.3,1.4-10.7
					c0.2-0.6,0.2-0.9,0.3-1.2c0.1-0.6,0.2-0.9,0.6-1.9c2.5-5.8,6.8-4.5,10.5-3.4c1.7,0.5,3.4,1,5.1,1c1.6,0,3.4-0.6,5.1-1.1
					c3.7-1.2,8.4-2.6,11,2.5c0.8,1.5,0.9,2.1,1.1,3.2c0.1,0.4,0.2,1,0.4,1.8c0.8,3.1,1.2,6.4,1.2,9.8c0,15.8-10.9,27.6-18.3,27.8
					C96.6,161.7,96.5,161.7,96.4,161.7z M86.4,118.2c-1.5,0-2.6,0.7-3.5,2.9c-0.3,0.8-0.4,1-0.5,1.4c-0.1,0.3-0.1,0.7-0.3,1.3
					c-0.9,3.2-1.3,6.5-1.3,10c0,9.7,4.5,17.6,8.7,21.6c2.5,2.4,4.9,3.7,7.1,3.7c6.3-0.2,15.9-11.6,15.9-25.3c0-3.2-0.4-6.3-1.1-9.2
					c-0.2-0.9-0.3-1.5-0.4-1.9c-0.2-0.9-0.2-1.3-0.9-2.5c-1.5-3-3.9-2.5-8-1.2c-1.9,0.6-3.9,1.2-5.9,1.2c-2.1,0-4-0.6-5.8-1.1
					C88.8,118.6,87.5,118.2,86.4,118.2z"/>
			</g>
		</g>
	</g>
	<g>
		<path class="st7" d="M122.3,144.4c0,0,8.5,2.6,10.5,10.2c2.2,8.5-1.3,10.2-2.6,29.1c-1.5-14.1-5.4-18.4-7.9-23
			c-2.6-4.6-3.3-9.6-2.7-12.4C120.1,145.6,122.3,144.4,122.3,144.4z"/>
		<path class="st1" d="M128.9,183.8c-1.3-11.7-4.2-16.6-6.6-20.4c-0.4-0.7-0.8-1.4-1.2-2c-2.8-5.1-3.5-10.4-2.8-13.3
			c0.7-3.3,3.3-4.7,3.4-4.8l0.5-0.2l0.5,0.2c0.4,0.1,9.2,2.9,11.3,11c1.3,5,0.7,7.8-0.3,12.5c-0.7,3.7-1.8,8.7-2.3,17L128.9,183.8z
			 M122.5,145.8c-0.5,0.4-1.4,1.3-1.8,2.8c-0.5,2.5,0.2,7.2,2.6,11.5c0.4,0.7,0.8,1.3,1.2,2c1.8,2.9,3.8,6.3,5.4,12.5
			c0.5-3.5,1-6.1,1.5-8.3c0.9-4.6,1.4-7,0.3-11.4C130.1,149.1,124.3,146.5,122.5,145.8z"/>
	</g>
	<g>
		<path class="st9" d="M115.3,150.5c-0.7-0.5-0.8-1.5-0.2-2.2c0.9-0.9,2.1-2.3,2.9-3.4c0.9-1.2,1.7-3.2,2.2-4.6
			c0.3-0.7,1.2-1,1.8-0.5l1.7,1.3c0.7,0.5,0.8,1.5,0.4,2.2l-5.1,7.8c-0.5,0.7-1.4,0.9-2.2,0.4L115.3,150.5z"/>
		<path class="st1" d="M117.7,153.1c-0.6,0-1.1-0.2-1.6-0.5l-1.5-1.1c-0.6-0.4-1.1-1.1-1.1-1.9c-0.1-0.8,0.2-1.5,0.7-2.1
			c1.2-1.3,2.2-2.4,2.8-3.3c0.6-0.9,1.3-2.4,2.1-4.3c0.3-0.7,0.9-1.2,1.6-1.4c0.7-0.2,1.5-0.1,2.1,0.4l1.7,1.3
			c1.2,0.9,1.5,2.6,0.7,3.9l-5.1,7.8c-0.4,0.6-1.1,1.1-1.8,1.2C118.1,153.1,117.9,153.1,117.7,153.1z M116,149.5l1.5,1.1l1.4,0.6
			l-1-0.7l5.1-7.8c0.1-0.2,0.1-0.4-0.1-0.5l-1.7-1.3c-0.5,1.4-1.3,3.5-2.3,4.8c-0.7,1-1.7,2.2-3.1,3.6l-0.7,1.3L116,149.5z"/>
	</g>
	<g>
		<path class="st7" d="M73,145.5c0,0-8.5,2.6-10.5,10.2c-2.2,8.5,1.3,10.2,2.6,29.1c1.5-14.1,5.4-18.4,7.9-23
			c2.6-4.6,3.3-9.6,2.7-12.4C75.2,146.7,73,145.5,73,145.5z"/>
		<path class="st1" d="M66.5,184.9l-2.5,0c-0.6-8.3-1.6-13.3-2.3-17c-1-4.7-1.5-7.5-0.3-12.5c2.1-8.1,10.9-10.9,11.3-11l0.5-0.2
			l0.5,0.2c0.1,0.1,2.7,1.5,3.4,4.8c0.6,2.8,0,8.2-2.8,13.3c-0.4,0.7-0.8,1.3-1.2,2C70.7,168.4,67.7,173.2,66.5,184.9z M72.9,146.9
			c-1.8,0.7-7.6,3.4-9.1,9.1c-1.1,4.4-0.7,6.8,0.3,11.4c0.4,2.2,1,4.8,1.5,8.3c1.5-6.1,3.6-9.5,5.4-12.5c0.4-0.7,0.8-1.3,1.2-2
			c2.4-4.3,3.1-9,2.6-11.5C74.3,148.2,73.4,147.3,72.9,146.9z"/>
	</g>
	<g>
		<path class="st9" d="M80.1,151.7c0.7-0.5,0.8-1.5,0.2-2.2c-0.9-0.9-2.1-2.3-2.9-3.4c-0.9-1.2-1.7-3.2-2.2-4.6
			c-0.3-0.7-1.2-1-1.8-0.5l-1.7,1.3c-0.7,0.5-0.8,1.5-0.4,2.2l5.1,7.8c0.5,0.7,1.4,0.9,2.2,0.4L80.1,151.7z"/>
		<path class="st1" d="M77.7,154.2c-0.2,0-0.4,0-0.5-0.1c-0.7-0.1-1.4-0.6-1.8-1.2l-5.1-7.8c-0.8-1.3-0.5-3,0.7-3.9l1.7-1.3
			c0.6-0.5,1.4-0.6,2.1-0.4c0.7,0.2,1.3,0.7,1.6,1.4c0.7,1.9,1.5,3.4,2.1,4.3c0.8,1.1,2,2.4,2.8,3.3c0.5,0.6,0.8,1.3,0.7,2.1
			c-0.1,0.8-0.5,1.5-1.1,1.9l-1.5,1.1C78.8,154.1,78.2,154.2,77.7,154.2z M73.9,142l-1.6,1.3c-0.2,0.1-0.2,0.4-0.1,0.5l5.1,7.8
			l1.1,1.1l-0.7-1l1.5-1.1c0,0,0.1-0.1,0.1-0.1c-1-1.1-2.2-2.5-3.1-3.7C75.4,145.5,74.5,143.5,73.9,142z"/>
	</g>
</g>
</svg>
