<?xml version="1.0" encoding="utf-8"?>
<!-- Generator: Adobe Illustrator 21.1.0, SVG Export Plug-In . SVG Version: 6.00 Build 0)  -->
<svg version="1.1" id="Layer_1" xmlns="http://www.w3.org/2000/svg" xmlns:xlink="http://www.w3.org/1999/xlink" x="0px" y="0px"
	 viewBox="0 0 100 100" style="enable-background:new 0 0 100 100;" xml:space="preserve">
<style type="text/css">
	.st0{fill:#FFFFFF;}
	.st1{fill:#4C4C4D;}
	.st2{fill:#186593;}
	.st3{fill:#CE82B7;}
	.st4{fill:#C04699;}
	.st5{fill:#B6BABC;}
	.st6{fill:#909496;}
</style>
<g>
	<g>
		<g>
			
				<rect x="21.1" y="10.2" transform="matrix(0.8948 0.4465 -0.4465 0.8948 27.4839 -16.9386)" class="st0" width="57.1" height="79.3"/>
			<path class="st1" d="M53.5,97.2l-44-21.9C7.1,74,6.1,71,7.3,68.6l31.9-64c1.2-2.4,4-3.3,6.4-2.1L90,24.6c2.4,1.2,3.3,4,2.1,6.4
				L60.2,95C58.9,97.4,56,98.4,53.5,97.2z M12.1,74.4l40.6,20.3c2.4,1.2,5.4,0.2,6.6-2.2l30.5-61.1c1-2.1,0.2-4.7-1.9-5.7L46.1,4.8
				c-2.1-1-4.7-0.2-5.7,1.9L9.9,67.8C8.7,70.2,9.6,73.2,12.1,74.4z"/>
		</g>
		<g>
			
				<rect x="42.3" y="19" transform="matrix(0.8948 0.4465 -0.4465 0.8948 14.937 -20.9819)" class="st2" width="19.5" height="4.3"/>
			
				<rect x="16.3" y="74.2" transform="matrix(0.8948 0.4465 -0.4465 0.8948 37.6178 -8.2961)" class="st2" width="40.2" height="2.9"/>
			
				<rect x="19" y="68.8" transform="matrix(0.8948 0.4465 -0.4465 0.8948 35.4824 -10.0694)" class="st2" width="40.2" height="2.9"/>
			
				<rect x="21.7" y="63.4" transform="matrix(0.8948 0.4465 -0.4465 0.8948 33.347 -11.8428)" class="st2" width="40.2" height="2.9"/>
			
				<rect x="24.4" y="57.9" transform="matrix(0.8948 0.4465 -0.4465 0.8948 31.2116 -13.6162)" class="st2" width="40.2" height="2.9"/>
			<g>
				<polygon class="st2" points="31.7,44.3 41.9,23.7 40.2,22.9 30,43.5 29.1,45.2 30.8,46 64.8,63 65.6,61.3 				"/>
				<g>
					<polygon class="st3" points="38.7,41.3 38.2,40.3 49.1,34.5 59.1,48.1 71.4,40.5 72,41.4 58.8,49.6 48.8,36 					"/>
					
						<ellipse transform="matrix(0.4465 -0.8948 0.8948 0.4465 -4.8044 63.1851)" class="st4" cx="48.7" cy="35.5" rx="2.5" ry="2.5"/>
					
						<ellipse transform="matrix(0.4465 -0.8948 0.8948 0.4465 -10.7356 79.8439)" class="st4" cx="59.2" cy="48.6" rx="2.5" ry="2.5"/>
					
						<ellipse transform="matrix(0.4465 -0.8948 0.8948 0.4465 2.7752 86.6001)" class="st4" cx="71.4" cy="41.1" rx="2.5" ry="2.5"/>
					
						<ellipse transform="matrix(0.4465 -0.8948 0.8948 0.4465 -15.2393 57.0208)" class="st4" cx="38.5" cy="40.8" rx="2.5" ry="2.5"/>
				</g>
			</g>
		</g>
	</g>
	<path class="st2" d="M57.1,92.6L11.8,70.1l0.2-0.4L42.6,8.3l45.2,22.5L57.1,92.6z M13.1,69.7l43.6,21.7l30-60.2L43,9.5L13.1,69.7z"
		/>
	<g>
		
			<rect x="44.1" y="19.8" transform="matrix(0.8953 0.4454 -0.4454 0.8953 15.9937 -26.4704)" class="st5" width="40.4" height="2"/>
		<path class="st6" d="M82.7,24.6l-9.5-4.7c-1.1-0.6-1.6-1.9-1-3l1.6-3.2c0.5-1,0.1-2.1-0.9-2.6l-0.6-0.3c0-0.1,0.1-0.1,0.1-0.2
			c0.9-1.8,0.2-4-1.7-4.9c-1.8-0.9-4-0.2-4.9,1.7c0,0.1-0.1,0.1-0.1,0.2l-0.3-0.1c-1-0.5-2.1-0.1-2.6,0.9l-1.6,3.2
			c-0.6,1.1-1.9,1.6-3,1l-8.1-4c-1-0.5-2.2-0.1-2.7,0.9L46.6,11l36.1,18l0.9-1.8C84.1,26.3,83.7,25.1,82.7,24.6z M68.5,10.3
			c-1-0.5-1.3-1.6-0.9-2.6c0.5-1,1.6-1.3,2.6-0.9c1,0.5,1.3,1.6,0.9,2.6C70.6,10.4,69.5,10.8,68.5,10.3z"/>
	</g>
</g>
</svg>
